# xmcd
# 
# Track frame offsets:
#     150
#     19088
#     36450
#     52046
#     66173
#     87240
#     101905
#     117298
#     132759
#     146003
#     166926
#     180683
#     197858
#     212723
#     227190
# 
# Disc length: 3213
# 
# Revision: 4
# Processed by: cddbd v1.5.2PL0 Copyright (c) Steve Scherf et al.
# Submitted via: fre:ac v1.0.31
# 
DISCID=df0c8b0f
DTITLE=Muddy Waters Tribute - Muddy Waters 100
DYEAR=2015
DGENRE=Blues
TTITLE0=Got My Mojo Working (ft Shemekia Copeland, vocals)
TTITLE1=Still A Fool (ft Derek Trucks, slide guitar)
TTITLE2=I Be`s Troubled (ft Bob Margolin, slide guitar)
TTITLE3=I`m Ready (ft Johnny Winter, slide guitar)
TTITLE4=Mannish Boy (ft Bob Margolin, guitar)
TTITLE5=Rosalie (ft Steve Gibons, fiddle)
TTITLE6=Why Don`t You Live So God Can Use You (ft Vincent Bucher, harmonica, and Leanne Faine, vocals)
TTITLE7=Good News (ft James Cotton, harmonica, and Bob Margolin, guitar)
TTITLE8=Trouble No More (ft Billy Branch, harmonica)
TTITLE9=She Moves Me (ft Matthew Skoller, harmonica)
TTITLE10=Can`t Get No Grindin' (ft Billy Branch, harmonica)
TTITLE11=Forty Days And Forty Nights (ft Gary Clark Jr., guitar)
TTITLE12=Last Time I Fool Around With You (ft Keb' Mo', slide guitar)
TTITLE13=I Feel So Good (ft James Cotton, harmonica)
TTITLE14=Feel Like Going Home
EXTD=YEAR: 2015
EXTT0=
EXTT1=
EXTT2=
EXTT3=
EXTT4=
EXTT5=
EXTT6=
EXTT7=
EXTT8=
EXTT9=
EXTT10=
EXTT11=
EXTT12=
EXTT13=
EXTT14=
PLAYORDER=
